# MagicaVoxel @ Ephtracy

# material
mtllib store.mtl
usemtl palette

# normals
vn -1 0 0
vn 1 0 0
vn 0 0 1
vn 0 0 -1
vn 0 -1 0
vn 0 1 0

# texcoords
vt 0.505859 0.5
vt 0.646484 0.5
vt 0.810547 0.5
vt 0.958984 0.5
vt 0.974609 0.5
vt 0.986328 0.5

# verts
v -0.5 0 0.475
v -0.5 0 0.45
v -0.5 0 -0.5
v -0.5 0.225 0.5
v -0.5 0.225 0.475
v -0.5 0.225 0.45
v -0.5 0.275 0.5
v -0.5 0.275 0.45
v -0.5 0.35 -0.45
v -0.5 0.35 -0.5
v -0.5 0.375 0.45
v -0.5 0.375 -0.45
v -0.475 0.35 -0.475
v -0.475 0.35 -0.5
v -0.475 0.375 -0.475
v -0.475 0.375 -0.5
v -0.45 0.025 0.45
v -0.45 0.025 0.425
v -0.45 0.05 0.325
v -0.45 0.05 0.275
v -0.45 0.25 0.45
v -0.45 0.25 0.425
v -0.45 0.25 0.325
v -0.45 0.25 0.275
v -0.3 0 0.475
v -0.3 0 0.45
v -0.3 0.025 0.475
v -0.3 0.025 0.45
v -0.3 0.075 0.475
v -0.3 0.075 0.45
v -0.3 0.225 0.475
v -0.3 0.225 0.45
v -0.225 0.025 0.45
v -0.225 0.025 0.425
v -0.225 0.25 0.45
v -0.225 0.25 0.425
v -0.15 0.075 0.45
v -0.15 0.075 0.425
v -0.15 0.1 0.45
v -0.15 0.1 0.425
v -0.075 0 0.475
v -0.075 0 0.45
v -0.075 0.225 0.475
v -0.075 0.225 0.45
v 0 0.025 0.45
v 0 0.025 0.425
v 0 0.25 0.45
v 0 0.25 0.425
v 0.15 0 0.475
v 0.15 0 0.45
v 0.15 0.025 0.475
v 0.15 0.025 0.45
v 0.15 0.075 0.475
v 0.15 0.075 0.45
v 0.15 0.225 0.475
v 0.15 0.225 0.45
v 0.225 0.025 0.45
v 0.225 0.025 0.425
v 0.225 0.25 0.45
v 0.225 0.25 0.425
v 0.4 0 0.475
v 0.4 0 0.45
v 0.4 0.025 0.475
v 0.4 0.025 0.45
v 0.4 0.075 0.475
v 0.4 0.075 0.45
v 0.4 0.225 0.475
v 0.4 0.225 0.45
v 0.45 0.35 0.4
v 0.45 0.35 -0.475
v 0.45 0.375 0.4
v 0.45 0.375 -0.475
v 0.475 0.025 0.45
v 0.475 0.025 -0.475
v 0.475 0.25 0.45
v 0.475 0.25 0.425
v 0.475 0.325 0.425
v 0.475 0.325 -0.475
v -0.475 0.025 0.45
v -0.475 0.025 -0.475
v -0.475 0.25 0.45
v -0.475 0.25 0.425
v -0.475 0.325 0.425
v -0.475 0.325 -0.475
v -0.475 0.35 0.4
v -0.475 0.35 -0.45
v -0.475 0.375 0.4
v -0.475 0.375 -0.45
v -0.425 0 0.475
v -0.425 0 0.45
v -0.425 0.025 0.475
v -0.425 0.025 0.45
v -0.425 0.075 0.475
v -0.425 0.075 0.45
v -0.425 0.225 0.475
v -0.425 0.225 0.45
v -0.275 0.025 0.45
v -0.275 0.025 0.425
v -0.275 0.25 0.45
v -0.275 0.25 0.425
v -0.2 0 0.475
v -0.2 0 0.45
v -0.2 0.225 0.475
v -0.2 0.225 0.45
v -0.175 0.075 0.45
v -0.175 0.075 0.425
v -0.175 0.1 0.45
v -0.175 0.1 0.425
v -0.15 0.05 0.325
v -0.15 0.05 0.275
v -0.15 0.175 0.325
v -0.15 0.175 0.275
v -0.15 0.25 0.325
v -0.15 0.25 0.275
v -0.05 0.025 0.45
v -0.05 0.025 0.425
v -0.05 0.25 0.45
v -0.05 0.25 0.425
v 0.025 0 0.475
v 0.025 0 0.45
v 0.025 0.025 0.475
v 0.025 0.025 0.45
v 0.025 0.075 0.475
v 0.025 0.075 0.45
v 0.025 0.225 0.475
v 0.025 0.225 0.45
v 0.175 0.025 0.45
v 0.175 0.025 0.425
v 0.175 0.25 0.45
v 0.175 0.25 0.425
v 0.25 0 0.475
v 0.25 0 0.45
v 0.25 0.025 0.475
v 0.25 0.025 0.45
v 0.25 0.075 0.475
v 0.25 0.075 0.45
v 0.25 0.225 0.475
v 0.25 0.225 0.45
v 0.425 0.025 0.45
v 0.425 0.025 0.425
v 0.425 0.25 0.45
v 0.425 0.25 0.425
v 0.5 0 0.475
v 0.5 0 0.45
v 0.5 0 -0.5
v 0.5 0.225 0.5
v 0.5 0.225 0.475
v 0.5 0.225 0.45
v 0.5 0.275 0.5
v 0.5 0.275 0.45
v 0.5 0.375 0.45
v 0.5 0.375 -0.5
v -0.5 0.225 0.5
v -0.5 0.275 0.5
v 0.5 0.225 0.5
v 0.5 0.275 0.5
v -0.5 0 0.475
v -0.5 0.225 0.475
v -0.475 0 0.475
v -0.475 0.225 0.475
v -0.425 0 0.475
v -0.425 0.025 0.475
v -0.425 0.075 0.475
v -0.425 0.225 0.475
v -0.3 0 0.475
v -0.3 0.025 0.475
v -0.3 0.075 0.475
v -0.3 0.225 0.475
v -0.2 0 0.475
v -0.2 0.225 0.475
v -0.075 0 0.475
v -0.075 0.225 0.475
v 0.025 0 0.475
v 0.025 0.025 0.475
v 0.025 0.075 0.475
v 0.025 0.225 0.475
v 0.15 0 0.475
v 0.15 0.025 0.475
v 0.15 0.075 0.475
v 0.15 0.225 0.475
v 0.25 0 0.475
v 0.25 0.025 0.475
v 0.25 0.075 0.475
v 0.25 0.225 0.475
v 0.4 0 0.475
v 0.4 0.025 0.475
v 0.4 0.075 0.475
v 0.4 0.225 0.475
v 0.475 0 0.475
v 0.475 0.225 0.475
v 0.5 0 0.475
v 0.5 0.225 0.475
v -0.5 0.275 0.45
v -0.5 0.375 0.45
v -0.475 0.275 0.45
v -0.425 0 0.45
v -0.425 0.025 0.45
v -0.425 0.075 0.45
v -0.425 0.225 0.45
v -0.3 0 0.45
v -0.3 0.025 0.45
v -0.3 0.075 0.45
v -0.3 0.225 0.45
v -0.2 0 0.45
v -0.2 0.225 0.45
v -0.175 0.075 0.45
v -0.175 0.1 0.45
v -0.15 0.075 0.45
v -0.15 0.1 0.45
v -0.075 0 0.45
v -0.075 0.225 0.45
v 0.025 0 0.45
v 0.025 0.025 0.45
v 0.025 0.075 0.45
v 0.025 0.225 0.45
v 0.15 0 0.45
v 0.15 0.025 0.45
v 0.15 0.075 0.45
v 0.15 0.225 0.45
v 0.25 0 0.45
v 0.25 0.025 0.45
v 0.25 0.075 0.45
v 0.25 0.225 0.45
v 0.4 0 0.45
v 0.4 0.025 0.45
v 0.4 0.075 0.45
v 0.4 0.225 0.45
v 0.475 0.275 0.45
v 0.5 0.275 0.45
v 0.5 0.375 0.45
v -0.45 0.05 0.325
v -0.45 0.25 0.325
v -0.225 0.175 0.325
v -0.225 0.25 0.325
v -0.15 0.05 0.325
v -0.15 0.175 0.325
v -0.15 0.25 0.325
v -0.475 0.025 -0.475
v -0.475 0.325 -0.475
v -0.475 0.35 -0.475
v -0.475 0.375 -0.475
v 0.45 0.35 -0.475
v 0.45 0.375 -0.475
v 0.475 0.025 -0.475
v 0.475 0.325 -0.475
v -0.475 0.025 0.45
v -0.475 0.25 0.45
v -0.45 0.025 0.45
v -0.45 0.25 0.45
v -0.275 0.025 0.45
v -0.275 0.25 0.45
v -0.225 0.025 0.45
v -0.225 0.25 0.45
v -0.05 0.025 0.45
v -0.05 0.25 0.45
v 0 0.025 0.45
v 0 0.25 0.45
v 0.175 0.025 0.45
v 0.175 0.25 0.45
v 0.225 0.025 0.45
v 0.225 0.25 0.45
v 0.425 0.025 0.45
v 0.425 0.25 0.45
v 0.475 0.025 0.45
v 0.475 0.25 0.45
v -0.475 0.25 0.425
v -0.475 0.325 0.425
v -0.45 0.025 0.425
v -0.45 0.25 0.425
v -0.425 0.075 0.425
v -0.425 0.225 0.425
v -0.3 0.075 0.425
v -0.3 0.225 0.425
v -0.275 0.025 0.425
v -0.275 0.25 0.425
v -0.225 0.025 0.425
v -0.225 0.25 0.425
v -0.2 0.025 0.425
v -0.2 0.225 0.425
v -0.175 0.075 0.425
v -0.175 0.1 0.425
v -0.15 0.075 0.425
v -0.15 0.1 0.425
v -0.075 0.025 0.425
v -0.075 0.225 0.425
v -0.05 0.025 0.425
v -0.05 0.25 0.425
v 0 0.025 0.425
v 0 0.25 0.425
v 0.025 0.075 0.425
v 0.025 0.225 0.425
v 0.15 0.075 0.425
v 0.15 0.225 0.425
v 0.175 0.025 0.425
v 0.175 0.25 0.425
v 0.225 0.025 0.425
v 0.225 0.25 0.425
v 0.25 0.075 0.425
v 0.25 0.225 0.425
v 0.4 0.075 0.425
v 0.4 0.225 0.425
v 0.425 0.025 0.425
v 0.425 0.25 0.425
v 0.475 0.25 0.425
v 0.475 0.325 0.425
v -0.475 0.35 0.4
v -0.475 0.375 0.4
v 0.45 0.35 0.4
v 0.45 0.375 0.4
v -0.45 0.05 0.275
v -0.45 0.25 0.275
v -0.225 0.175 0.275
v -0.225 0.25 0.275
v -0.15 0.05 0.275
v -0.15 0.175 0.275
v -0.15 0.25 0.275
v -0.5 0.35 -0.45
v -0.5 0.375 -0.45
v -0.475 0.35 -0.45
v -0.475 0.375 -0.45
v -0.5 0 -0.5
v -0.5 0.35 -0.5
v -0.475 0.35 -0.5
v -0.475 0.375 -0.5
v 0.5 0 -0.5
v 0.5 0.375 -0.5
v -0.5 0 0.475
v -0.475 0 0.475
v -0.425 0 0.475
v -0.3 0 0.475
v -0.2 0 0.475
v -0.075 0 0.475
v 0.025 0 0.475
v 0.15 0 0.475
v 0.25 0 0.475
v 0.4 0 0.475
v 0.475 0 0.475
v 0.5 0 0.475
v -0.5 0 0.45
v -0.475 0 0.45
v -0.425 0 0.45
v -0.3 0 0.45
v -0.2 0 0.45
v -0.075 0 0.45
v 0.025 0 0.45
v 0.15 0 0.45
v 0.25 0 0.45
v 0.4 0 0.45
v 0.475 0 0.45
v 0.5 0 0.45
v -0.2 0 0.425
v -0.075 0 0.425
v -0.5 0 -0.5
v 0.5 0 -0.5
v -0.425 0.025 0.475
v -0.3 0.025 0.475
v 0.025 0.025 0.475
v 0.15 0.025 0.475
v 0.25 0.025 0.475
v 0.4 0.025 0.475
v -0.425 0.025 0.45
v -0.3 0.025 0.45
v 0.025 0.025 0.45
v 0.15 0.025 0.45
v 0.25 0.025 0.45
v 0.4 0.025 0.45
v -0.45 0.05 0.325
v -0.15 0.05 0.325
v -0.45 0.05 0.275
v -0.15 0.05 0.275
v -0.175 0.1 0.45
v -0.15 0.1 0.45
v -0.175 0.1 0.425
v -0.15 0.1 0.425
v -0.5 0.225 0.5
v 0.5 0.225 0.5
v -0.5 0.225 0.475
v -0.475 0.225 0.475
v -0.425 0.225 0.475
v -0.3 0.225 0.475
v -0.2 0.225 0.475
v -0.075 0.225 0.475
v 0.025 0.225 0.475
v 0.15 0.225 0.475
v 0.25 0.225 0.475
v 0.4 0.225 0.475
v 0.475 0.225 0.475
v 0.5 0.225 0.475
v -0.425 0.225 0.45
v -0.3 0.225 0.45
v -0.2 0.225 0.45
v -0.075 0.225 0.45
v 0.025 0.225 0.45
v 0.15 0.225 0.45
v 0.25 0.225 0.45
v 0.4 0.225 0.45
v -0.475 0.25 0.45
v -0.45 0.25 0.45
v -0.275 0.25 0.45
v -0.225 0.25 0.45
v -0.05 0.25 0.45
v 0 0.25 0.45
v 0.175 0.25 0.45
v 0.225 0.25 0.45
v 0.425 0.25 0.45
v 0.475 0.25 0.45
v -0.475 0.25 0.425
v -0.45 0.25 0.425
v -0.275 0.25 0.425
v -0.225 0.25 0.425
v -0.05 0.25 0.425
v 0 0.25 0.425
v 0.175 0.25 0.425
v 0.225 0.25 0.425
v 0.425 0.25 0.425
v 0.475 0.25 0.425
v -0.475 0.325 0.425
v 0.475 0.325 0.425
v -0.475 0.325 -0.475
v 0.475 0.325 -0.475
v -0.475 0.025 0.45
v -0.45 0.025 0.45
v -0.275 0.025 0.45
v -0.225 0.025 0.45
v -0.05 0.025 0.45
v 0 0.025 0.45
v 0.175 0.025 0.45
v 0.225 0.025 0.45
v 0.425 0.025 0.45
v 0.475 0.025 0.45
v -0.45 0.025 0.425
v -0.275 0.025 0.425
v -0.225 0.025 0.425
v -0.2 0.025 0.425
v -0.075 0.025 0.425
v -0.05 0.025 0.425
v 0 0.025 0.425
v 0.175 0.025 0.425
v 0.225 0.025 0.425
v 0.425 0.025 0.425
v -0.475 0.025 -0.475
v 0.475 0.025 -0.475
v -0.425 0.075 0.475
v -0.3 0.075 0.475
v 0.025 0.075 0.475
v 0.15 0.075 0.475
v 0.25 0.075 0.475
v 0.4 0.075 0.475
v -0.425 0.075 0.45
v -0.3 0.075 0.45
v -0.175 0.075 0.45
v -0.15 0.075 0.45
v 0.025 0.075 0.45
v 0.15 0.075 0.45
v 0.25 0.075 0.45
v 0.4 0.075 0.45
v -0.175 0.075 0.425
v -0.15 0.075 0.425
v -0.45 0.25 0.325
v -0.225 0.25 0.325
v -0.15 0.25 0.325
v -0.45 0.25 0.275
v -0.225 0.25 0.275
v -0.15 0.25 0.275
v -0.5 0.275 0.5
v 0.5 0.275 0.5
v -0.475 0.275 0.475
v 0.475 0.275 0.475
v -0.5 0.275 0.45
v -0.475 0.275 0.45
v 0.475 0.275 0.45
v 0.5 0.275 0.45
v -0.475 0.35 0.4
v 0.45 0.35 0.4
v -0.5 0.35 -0.45
v -0.475 0.35 -0.45
v -0.475 0.35 -0.475
v 0.45 0.35 -0.475
v -0.5 0.35 -0.5
v -0.475 0.35 -0.5
v -0.5 0.375 0.45
v 0.5 0.375 0.45
v -0.475 0.375 0.4
v 0.45 0.375 0.4
v -0.5 0.375 -0.45
v -0.475 0.375 -0.45
v -0.475 0.375 -0.475
v 0.45 0.375 -0.475
v -0.475 0.375 -0.5
v 0.5 0.375 -0.5

# faces
f 5/6/1 2/6/1 1/6/1
f 6/5/1 3/5/1 2/5/1
f 6/6/1 2/6/1 5/6/1
f 7/2/1 5/2/1 4/2/1
f 7/2/1 6/2/1 5/2/1
f 8/5/1 3/5/1 6/5/1
f 8/2/1 6/2/1 7/2/1
f 9/5/1 3/5/1 8/5/1
f 10/5/1 3/5/1 9/5/1
f 11/5/1 9/5/1 8/5/1
f 12/5/1 9/5/1 11/5/1
f 15/5/1 14/5/1 13/5/1
f 16/5/1 14/5/1 15/5/1
f 21/5/1 18/5/1 17/5/1
f 22/5/1 18/5/1 21/5/1
f 23/5/1 20/5/1 19/5/1
f 24/5/1 20/5/1 23/5/1
f 27/5/1 26/5/1 25/5/1
f 28/5/1 26/5/1 27/5/1
f 31/5/1 30/5/1 29/5/1
f 32/5/1 30/5/1 31/5/1
f 35/5/1 34/5/1 33/5/1
f 36/5/1 34/5/1 35/5/1
f 39/1/1 38/1/1 37/1/1
f 40/1/1 38/1/1 39/1/1
f 43/5/1 42/5/1 41/5/1
f 44/5/1 42/5/1 43/5/1
f 47/5/1 46/5/1 45/5/1
f 48/5/1 46/5/1 47/5/1
f 51/5/1 50/5/1 49/5/1
f 52/5/1 50/5/1 51/5/1
f 55/5/1 54/5/1 53/5/1
f 56/5/1 54/5/1 55/5/1
f 59/5/1 58/5/1 57/5/1
f 60/5/1 58/5/1 59/5/1
f 63/5/1 62/5/1 61/5/1
f 64/5/1 62/5/1 63/5/1
f 67/5/1 66/5/1 65/5/1
f 68/5/1 66/5/1 67/5/1
f 71/5/1 70/5/1 69/5/1
f 72/5/1 70/5/1 71/5/1
f 75/5/1 74/5/1 73/5/1
f 76/5/1 74/5/1 75/5/1
f 77/5/1 74/5/1 76/5/1
f 78/5/1 74/5/1 77/5/1
f 79/5/2 80/5/2 81/5/2
f 81/5/2 80/5/2 82/5/2
f 82/5/2 80/5/2 83/5/2
f 83/5/2 80/5/2 84/5/2
f 85/5/2 86/5/2 87/5/2
f 87/5/2 86/5/2 88/5/2
f 89/5/2 90/5/2 91/5/2
f 91/5/2 90/5/2 92/5/2
f 93/5/2 94/5/2 95/5/2
f 95/5/2 94/5/2 96/5/2
f 97/5/2 98/5/2 99/5/2
f 99/5/2 98/5/2 100/5/2
f 101/5/2 102/5/2 103/5/2
f 103/5/2 102/5/2 104/5/2
f 105/1/2 106/1/2 107/1/2
f 107/1/2 106/1/2 108/1/2
f 109/5/2 110/5/2 111/5/2
f 111/5/2 110/5/2 112/5/2
f 111/4/2 112/4/2 113/4/2
f 113/4/2 112/4/2 114/4/2
f 115/5/2 116/5/2 117/5/2
f 117/5/2 116/5/2 118/5/2
f 119/5/2 120/5/2 121/5/2
f 121/5/2 120/5/2 122/5/2
f 123/5/2 124/5/2 125/5/2
f 125/5/2 124/5/2 126/5/2
f 127/5/2 128/5/2 129/5/2
f 129/5/2 128/5/2 130/5/2
f 131/5/2 132/5/2 133/5/2
f 133/5/2 132/5/2 134/5/2
f 135/5/2 136/5/2 137/5/2
f 137/5/2 136/5/2 138/5/2
f 139/5/2 140/5/2 141/5/2
f 141/5/2 140/5/2 142/5/2
f 143/6/2 144/6/2 147/6/2
f 144/5/2 145/5/2 148/5/2
f 147/6/2 144/6/2 148/6/2
f 146/2/2 147/2/2 149/2/2
f 147/2/2 148/2/2 149/2/2
f 148/5/2 145/5/2 150/5/2
f 149/2/2 148/2/2 150/2/2
f 150/5/2 145/5/2 151/5/2
f 151/5/2 145/5/2 152/5/2
f 155/2/3 154/2/3 153/2/3
f 156/2/3 154/2/3 155/2/3
f 159/6/3 158/6/3 157/6/3
f 160/6/3 158/6/3 159/6/3
f 161/5/3 160/5/3 159/5/3
f 162/5/3 160/5/3 161/5/3
f 163/5/3 160/5/3 162/5/3
f 164/5/3 160/5/3 163/5/3
f 166/5/3 163/5/3 162/5/3
f 167/5/3 163/5/3 166/5/3
f 169/5/3 166/5/3 165/5/3
f 169/5/3 168/5/3 167/5/3
f 169/5/3 167/5/3 166/5/3
f 170/5/3 168/5/3 169/5/3
f 173/5/3 172/5/3 171/5/3
f 174/5/3 172/5/3 173/5/3
f 175/5/3 172/5/3 174/5/3
f 176/5/3 172/5/3 175/5/3
f 178/5/3 175/5/3 174/5/3
f 179/5/3 175/5/3 178/5/3
f 181/5/3 178/5/3 177/5/3
f 181/5/3 180/5/3 179/5/3
f 181/5/3 179/5/3 178/5/3
f 182/5/3 180/5/3 181/5/3
f 183/5/3 180/5/3 182/5/3
f 184/5/3 180/5/3 183/5/3
f 186/5/3 183/5/3 182/5/3
f 187/5/3 183/5/3 186/5/3
f 189/5/3 186/5/3 185/5/3
f 189/5/3 188/5/3 187/5/3
f 189/5/3 187/5/3 186/5/3
f 190/5/3 188/5/3 189/5/3
f 191/6/3 190/6/3 189/6/3
f 192/6/3 190/6/3 191/6/3
f 195/5/3 194/5/3 193/5/3
f 200/5/3 197/5/3 196/5/3
f 201/5/3 197/5/3 200/5/3
f 202/3/3 199/3/3 198/3/3
f 203/3/3 199/3/3 202/3/3
f 206/1/3 205/1/3 204/1/3
f 207/1/3 205/1/3 206/1/3
f 208/1/3 206/1/3 204/1/3
f 209/1/3 205/1/3 207/1/3
f 210/1/3 208/1/3 204/1/3
f 210/1/3 209/1/3 208/1/3
f 211/1/3 205/1/3 209/1/3
f 211/1/3 209/1/3 210/1/3
f 216/5/3 213/5/3 212/5/3
f 217/5/3 213/5/3 216/5/3
f 218/3/3 215/3/3 214/3/3
f 219/3/3 215/3/3 218/3/3
f 224/5/3 221/5/3 220/5/3
f 225/5/3 221/5/3 224/5/3
f 226/3/3 223/3/3 222/3/3
f 227/3/3 223/3/3 226/3/3
f 228/5/3 194/5/3 195/5/3
f 229/5/3 194/5/3 228/5/3
f 230/5/3 194/5/3 229/5/3
f 233/5/3 232/5/3 231/5/3
f 234/5/3 232/5/3 233/5/3
f 235/5/3 233/5/3 231/5/3
f 236/4/3 234/4/3 233/4/3
f 236/5/3 233/5/3 235/5/3
f 237/4/3 234/4/3 236/4/3
f 242/5/3 241/5/3 240/5/3
f 243/5/3 241/5/3 242/5/3
f 244/5/3 239/5/3 238/5/3
f 245/5/3 239/5/3 244/5/3
f 246/5/4 247/5/4 248/5/4
f 248/5/4 247/5/4 249/5/4
f 250/5/4 251/5/4 252/5/4
f 252/5/4 251/5/4 253/5/4
f 254/5/4 255/5/4 256/5/4
f 256/5/4 255/5/4 257/5/4
f 258/5/4 259/5/4 260/5/4
f 260/5/4 259/5/4 261/5/4
f 262/5/4 263/5/4 264/5/4
f 264/5/4 263/5/4 265/5/4
f 266/5/4 267/5/4 269/5/4
f 268/5/4 269/5/4 270/5/4
f 270/5/4 269/5/4 271/5/4
f 268/5/4 270/5/4 272/5/4
f 270/3/4 271/3/4 272/3/4
f 271/5/4 269/5/4 273/5/4
f 272/3/4 271/3/4 273/3/4
f 268/5/4 272/5/4 274/5/4
f 272/5/4 273/5/4 274/5/4
f 269/5/4 267/5/4 275/5/4
f 274/5/4 273/5/4 275/5/4
f 273/5/4 269/5/4 275/5/4
f 275/5/4 267/5/4 277/5/4
f 276/5/4 277/5/4 278/5/4
f 278/5/4 277/5/4 279/5/4
f 278/1/4 279/1/4 280/1/4
f 280/1/4 279/1/4 281/1/4
f 278/1/4 280/1/4 282/1/4
f 281/1/4 279/1/4 283/1/4
f 278/1/4 282/1/4 284/1/4
f 282/1/4 283/1/4 284/1/4
f 279/5/4 277/5/4 285/5/4
f 284/1/4 283/1/4 285/1/4
f 283/1/4 279/1/4 285/1/4
f 284/5/4 285/5/4 286/5/4
f 277/5/4 267/5/4 287/5/4
f 286/5/4 285/5/4 287/5/4
f 285/5/4 277/5/4 287/5/4
f 287/5/4 267/5/4 289/5/4
f 288/5/4 289/5/4 290/5/4
f 290/5/4 289/5/4 291/5/4
f 288/5/4 290/5/4 292/5/4
f 290/3/4 291/3/4 292/3/4
f 291/5/4 289/5/4 293/5/4
f 292/3/4 291/3/4 293/3/4
f 288/5/4 292/5/4 294/5/4
f 292/5/4 293/5/4 294/5/4
f 289/5/4 267/5/4 295/5/4
f 294/5/4 293/5/4 295/5/4
f 293/5/4 289/5/4 295/5/4
f 295/5/4 267/5/4 297/5/4
f 296/5/4 297/5/4 298/5/4
f 298/5/4 297/5/4 299/5/4
f 296/5/4 298/5/4 300/5/4
f 298/3/4 299/3/4 300/3/4
f 299/5/4 297/5/4 301/5/4
f 300/3/4 299/3/4 301/3/4
f 296/5/4 300/5/4 302/5/4
f 300/5/4 301/5/4 302/5/4
f 297/5/4 267/5/4 303/5/4
f 302/5/4 301/5/4 303/5/4
f 301/5/4 297/5/4 303/5/4
f 303/5/4 267/5/4 304/5/4
f 304/5/4 267/5/4 305/5/4
f 306/5/4 307/5/4 308/5/4
f 308/5/4 307/5/4 309/5/4
f 310/5/4 311/5/4 312/5/4
f 312/5/4 311/5/4 313/5/4
f 310/5/4 312/5/4 314/5/4
f 312/4/4 313/4/4 315/4/4
f 314/5/4 312/5/4 315/5/4
f 315/4/4 313/4/4 316/4/4
f 317/5/4 318/5/4 319/5/4
f 319/5/4 318/5/4 320/5/4
f 321/5/4 322/5/4 323/5/4
f 321/5/4 323/5/4 325/5/4
f 323/5/4 324/5/4 325/5/4
f 325/5/4 324/5/4 326/5/4
f 339/6/5 328/6/5 327/6/5
f 340/5/5 329/5/5 328/5/5
f 340/6/5 328/6/5 339/6/5
f 341/5/5 329/5/5 340/5/5
f 342/5/5 331/5/5 330/5/5
f 343/5/5 331/5/5 342/5/5
f 344/5/5 333/5/5 332/5/5
f 345/5/5 333/5/5 344/5/5
f 346/5/5 335/5/5 334/5/5
f 347/5/5 335/5/5 346/5/5
f 348/5/5 337/5/5 336/5/5
f 349/6/5 338/6/5 337/6/5
f 349/5/5 337/5/5 348/5/5
f 350/6/5 338/6/5 349/6/5
f 351/5/5 341/5/5 340/5/5
f 351/5/5 343/5/5 342/5/5
f 351/5/5 340/5/5 339/5/5
f 351/5/5 342/5/5 341/5/5
f 351/1/5 344/1/5 343/1/5
f 352/5/5 348/5/5 347/5/5
f 352/1/5 344/1/5 351/1/5
f 352/5/5 350/5/5 349/5/5
f 352/5/5 345/5/5 344/5/5
f 352/5/5 346/5/5 345/5/5
f 352/5/5 347/5/5 346/5/5
f 352/5/5 349/5/5 348/5/5
f 353/5/5 351/5/5 339/5/5
f 353/5/5 352/5/5 351/5/5
f 354/5/5 350/5/5 352/5/5
f 354/5/5 352/5/5 353/5/5
f 361/5/5 356/5/5 355/5/5
f 362/5/5 356/5/5 361/5/5
f 363/5/5 358/5/5 357/5/5
f 364/5/5 358/5/5 363/5/5
f 365/5/5 360/5/5 359/5/5
f 366/5/5 360/5/5 365/5/5
f 369/5/5 368/5/5 367/5/5
f 370/5/5 368/5/5 369/5/5
f 373/1/5 372/1/5 371/1/5
f 374/1/5 372/1/5 373/1/5
f 377/2/5 376/2/5 375/2/5
f 378/2/5 376/2/5 377/2/5
f 379/2/5 376/2/5 378/2/5
f 380/2/5 376/2/5 379/2/5
f 381/2/5 376/2/5 380/2/5
f 382/2/5 376/2/5 381/2/5
f 383/2/5 376/2/5 382/2/5
f 384/2/5 376/2/5 383/2/5
f 385/2/5 376/2/5 384/2/5
f 386/2/5 376/2/5 385/2/5
f 387/2/5 376/2/5 386/2/5
f 388/2/5 376/2/5 387/2/5
f 389/5/5 380/5/5 379/5/5
f 390/5/5 380/5/5 389/5/5
f 391/5/5 382/5/5 381/5/5
f 392/5/5 382/5/5 391/5/5
f 393/5/5 384/5/5 383/5/5
f 394/5/5 384/5/5 393/5/5
f 395/5/5 386/5/5 385/5/5
f 396/5/5 386/5/5 395/5/5
f 407/5/5 398/5/5 397/5/5
f 408/5/5 398/5/5 407/5/5
f 409/5/5 400/5/5 399/5/5
f 410/5/5 400/5/5 409/5/5
f 411/5/5 402/5/5 401/5/5
f 412/5/5 402/5/5 411/5/5
f 413/5/5 404/5/5 403/5/5
f 414/5/5 404/5/5 413/5/5
f 415/5/5 406/5/5 405/5/5
f 416/5/5 406/5/5 415/5/5
f 419/5/5 418/5/5 417/5/5
f 420/5/5 418/5/5 419/5/5
f 421/5/6 422/5/6 431/5/6
f 423/5/6 424/5/6 432/5/6
f 432/5/6 424/5/6 433/5/6
f 425/5/6 426/5/6 436/5/6
f 436/5/6 426/5/6 437/5/6
f 427/5/6 428/5/6 438/5/6
f 438/5/6 428/5/6 439/5/6
f 429/5/6 430/5/6 440/5/6
f 438/5/6 439/5/6 441/5/6
f 439/5/6 440/5/6 441/5/6
f 421/5/6 431/5/6 441/5/6
f 434/5/6 435/5/6 441/5/6
f 437/5/6 438/5/6 441/5/6
f 436/5/6 437/5/6 441/5/6
f 435/5/6 436/5/6 441/5/6
f 431/5/6 432/5/6 441/5/6
f 433/5/6 434/5/6 441/5/6
f 432/5/6 433/5/6 441/5/6
f 440/5/6 430/5/6 442/5/6
f 441/5/6 440/5/6 442/5/6
f 443/5/6 444/5/6 449/5/6
f 449/5/6 444/5/6 450/5/6
f 445/5/6 446/5/6 453/5/6
f 453/5/6 446/5/6 454/5/6
f 447/5/6 448/5/6 455/5/6
f 455/5/6 448/5/6 456/5/6
f 451/1/6 452/1/6 457/1/6
f 457/1/6 452/1/6 458/1/6
f 459/5/6 460/5/6 462/5/6
f 460/4/6 461/4/6 463/4/6
f 462/5/6 460/5/6 463/5/6
f 463/4/6 461/4/6 464/4/6
f 465/2/6 466/2/6 467/2/6
f 467/2/6 466/2/6 468/2/6
f 465/2/6 467/2/6 469/2/6
f 467/5/6 468/5/6 470/5/6
f 469/2/6 467/2/6 470/2/6
f 468/2/6 466/2/6 471/2/6
f 470/5/6 468/5/6 471/5/6
f 471/2/6 466/2/6 472/2/6
f 473/5/6 474/5/6 476/5/6
f 476/5/6 474/5/6 477/5/6
f 475/5/6 476/5/6 477/5/6
f 477/5/6 474/5/6 478/5/6
f 475/5/6 477/5/6 479/5/6
f 479/5/6 477/5/6 480/5/6
f 481/5/6 482/5/6 483/5/6
f 483/5/6 482/5/6 484/5/6
f 481/5/6 483/5/6 485/5/6
f 485/5/6 483/5/6 486/5/6
f 484/5/6 482/5/6 488/5/6
f 487/5/6 488/5/6 489/5/6
f 488/5/6 482/5/6 490/5/6
f 489/5/6 488/5/6 490/5/6
